<svg
x="62.8473"
y="229.2322"
width="250.8944"
height="357.5356"
viewBox="20.551998138427734 8.03600025177002 58.89500045776367 83.92799377441406"
preserveAspectRatio="none"
>
<g
  transform="matrix(1 0 0 1 0 0)"
  className="aLgOaV3zRcolors-0a9e641f9-c9d4-478e-a358-542b005d7e92"
>
  <path d="M25.026,67.797l-4.474,2.583v8.599l7.447,4.3l7.447-4.3v-8.599l-4.421-2.552V53.166L47,40.1v36.398l-4.447,2.568v8.599  L50,91.964l7.447-4.299v-8.599L53,76.498v-8.846l10.729-8.776l5.245,4.29v4.661l-4.421,2.552v8.599l7.447,4.3l7.447-4.3v-8.599  l-4.474-2.583v-7.474L68.467,55l6.506-5.322V32.203l4.474-2.583v-8.599L72,16.721l-7.447,4.3v8.599l4.421,2.552v14.661L53,59.9  V23.502l4.447-2.568v-8.599L50,8.036l-7.447,4.299v8.599L47,23.502v8.846l-10.729,8.776l-5.245-4.29v-4.661l4.421-2.552v-8.599  L28,16.721l-7.447,4.3v8.599l4.474,2.583v7.474L31.533,45l-6.506,5.322V67.797z M73.447,75.514L72,76.35l-1.447-0.835v-1.671  L72,73.008l1.447,0.835V75.514z M70.553,24.486L72,23.65l1.447,0.835v1.671L72,26.992l-1.447-0.835V24.486z M51.447,84.201  L50,85.036l-1.447-0.835V82.53L50,81.694l1.447,0.835V84.201z M48.553,15.799L50,14.964l1.447,0.835v1.671L50,18.306l-1.447-0.835  V15.799z M26.553,24.486L28,23.65l1.447,0.835v1.671L28,26.992l-1.447-0.835V24.486z M29.447,75.514L28,76.35l-1.447-0.835v-1.671  L28,73.008l1.447,0.835V75.514z"></path>
</g>
</svg>