<svg
x="349.6094"
y="286.4477"
width="1056.842"
height="147.3844"
viewBox="2.9492 -28.4078 206.50400000000002 28.798500000000004"
preserveAspectRatio="none"
>
<g
  transform="matrix(1 0 0 1 0 0)"
  className="aD6z1nYkhcolora9e641f9-c9d4-478e-a358-542b005d7e92"
>
  <path d="M35.55-25.84L35.55 0L30.43 0L30.43-16.68L21.43-0.84Q21.09-0.23 20.50 0.08Q19.90 0.39 19.22 0.39L19.22 0.39Q18.55 0.39 17.98 0.08Q17.40-0.23 17.07-0.84L17.07-0.84L8.03-16.68L8.03 0L2.95 0L2.95-25.84Q2.95-26.72 3.47-27.40Q3.98-28.09 4.82-28.32L4.82-28.32Q5.23-28.42 5.64-28.39Q6.05-28.36 6.44-28.21Q6.82-28.07 7.13-27.80Q7.44-27.54 7.66-27.17L7.66-27.17L19.22-7.07L30.78-27.17Q31.23-27.91 32.02-28.22Q32.81-28.54 33.67-28.32L33.67-28.32Q34.49-28.09 35.02-27.40Q35.55-26.72 35.55-25.84L35.55-25.84Z M70.84-16.68L70.84-11.33Q70.84-8.77 69.96-6.62Q69.08-4.47 67.52-2.91Q65.96-1.35 63.82-0.48Q61.68 0.39 59.16 0.39L59.16 0.39L52.29 0.39Q49.77 0.39 47.62-0.48Q45.47-1.35 43.91-2.91Q42.34-4.47 41.46-6.62Q40.57-8.77 40.57-11.33L40.57-11.33L40.57-16.68Q40.57-19.22 41.46-21.38Q42.34-23.54 43.91-25.09Q45.47-26.64 47.62-27.52Q49.77-28.40 52.29-28.40L52.29-28.40L59.16-28.40Q61.68-28.40 63.82-27.52Q65.96-26.64 67.52-25.09Q69.08-23.54 69.96-21.38Q70.84-19.22 70.84-16.68L70.84-16.68ZM65.76-11.33L65.76-16.68Q65.76-18.18 65.28-19.40Q64.80-20.63 63.94-21.49Q63.07-22.36 61.85-22.84Q60.63-23.32 59.16-23.32L59.16-23.32L52.29-23.32Q50.80-23.32 49.58-22.84Q48.36-22.36 47.48-21.49Q46.60-20.63 46.12-19.40Q45.64-18.18 45.64-16.68L45.64-16.68L45.64-11.33Q45.64-9.82 46.12-8.60Q46.60-7.38 47.48-6.51Q48.36-5.64 49.58-5.17Q50.80-4.69 52.29-4.69L52.29-4.69L59.12-4.69Q60.61-4.69 61.83-5.17Q63.05-5.64 63.93-6.51Q64.80-7.38 65.28-8.60Q65.76-9.82 65.76-11.33L65.76-11.33Z M103.81-7.13L103.81-6.15Q103.81-5.21 103.49-4.14Q103.16-3.07 102.43-2.15Q101.70-1.23 100.53-0.62Q99.36 0 97.66 0L97.66 0L78.38 0Q77.83 0 77.36-0.20Q76.89-0.39 76.55-0.73Q76.21-1.07 76.02-1.54Q75.82-2.01 75.82-2.56L75.82-2.56L75.82-25.45Q75.82-25.98 76.02-26.45Q76.21-26.91 76.55-27.27Q76.89-27.62 77.36-27.81Q77.83-28.01 78.38-28.01L78.38-28.01L95.37-28.01Q96.31-28.01 97.38-27.68Q98.46-27.34 99.38-26.61Q100.31-25.88 100.93-24.71Q101.54-23.54 101.54-21.84L101.54-21.84L101.54-20.88Q101.54-19.53 101.09-17.98Q100.64-16.43 99.65-15.04L99.65-15.04Q100.51-14.51 101.26-13.77Q102.01-13.03 102.58-12.05Q103.14-11.07 103.48-9.84Q103.81-8.61 103.81-7.13L103.81-7.13ZM98.73-6.19L98.73-7.13Q98.73-8.13 98.42-8.92Q98.11-9.71 97.54-10.27Q96.97-10.84 96.17-11.14Q95.37-11.45 94.38-11.45L94.38-11.45L82.93-11.45L82.93-16.56L92.09-16.56Q93.09-16.56 93.89-16.87Q94.69-17.17 95.25-17.73Q95.82-18.30 96.12-19.09Q96.43-19.88 96.43-20.88L96.43-20.88L96.43-21.84Q96.43-22.93 95.37-22.93L95.37-22.93L80.90-22.93L80.90-5.08L97.66-5.08Q97.79-5.08 97.99-5.10Q98.18-5.12 98.34-5.21Q98.50-5.31 98.61-5.55Q98.73-5.78 98.73-6.19L98.73-6.19Z M113.34-28.01L113.34 0L108.26 0L108.26-28.01L113.34-28.01Z M123.52-28.01L132.07-18.01L140.63-28.01L147.56-28.01L135.51-13.96L147.48 0L140.59 0L132.07-9.92L123.59 0L116.68 0L128.63-13.96L116.64-28.01L123.52-28.01Z M178.24-25.45L178.24 0L173.16 0L173.16-6.88L155.31-6.88L155.31 0L150.23 0L150.23-14.00Q150.23-17.07 151.29-19.65Q152.34-22.23 154.22-24.08Q156.09-25.94 158.65-26.97Q161.21-28.01 164.24-28.01L164.24-28.01L175.68-28.01Q176.21-28.01 176.68-27.81Q177.15-27.62 177.50-27.27Q177.85-26.91 178.05-26.45Q178.24-25.98 178.24-25.45L178.24-25.45ZM155.31-14.00L155.31-11.95L173.16-11.95L173.16-22.93L164.24-22.93Q164.00-22.93 163.25-22.86Q162.50-22.79 161.51-22.52Q160.53-22.25 159.43-21.68Q158.34-21.11 157.42-20.12Q156.50-19.12 155.91-17.63Q155.31-16.13 155.31-14.00L155.31-14.00Z M209.45-28.01L209.45-22.93L198.26-22.93L198.26 0L193.18 0L193.18-22.93L181.97-22.93L181.97-28.01L209.45-28.01Z"></path>
</g>
</svg>