<svg
            x="349.6094"
            y="473.4011"
            width="581.4598"
            height="57.9885"
            viewBox="0.56 -28 283.96 28.32"
            preserveAspectRatio="none"
          >
            <g
              transform="matrix(1 0 0 1 0 0)"
              className="texta9e641f9-c9d4-478e-a358-542b005d7e92"
            >
              <path d="M22.04-26.48L22.04-23.60L12.80-23.60L12.80 0L9.80 0L9.80-23.60L0.56-23.60L0.56-26.48L22.04-26.48Z M34.20-2.40L34.20-2.40Q38.24-2.40 40-5.76L40-5.76L43.28-5.76Q42.24-3.04 39.98-1.36Q37.72 0.32 34.16 0.32L34.16 0.32Q29.64 0.32 26.80-2.68L26.80-2.68Q24.04-5.60 24.04-10L24.04-10Q24.04-14.44 26.68-17.32L26.68-17.32Q29.48-20.32 33.96-20.32L33.96-20.32Q38.44-20.32 41.24-17.32L41.24-17.32Q43.88-14.44 43.88-10L43.88-10L43.88-8.80L27.12-8.80Q27.44-6.04 29.32-4.24L29.32-4.24Q31.24-2.40 34.20-2.40ZM33.96-17.60L33.96-17.60Q31.20-17.60 29.32-15.88L29.32-15.88Q27.56-14.24 27.16-11.60L27.16-11.60L40.76-11.60Q40.36-14.24 38.60-15.88L38.60-15.88Q36.72-17.60 33.96-17.60Z M60.80-2.40L60.80-2.40Q62.72-2.40 64.20-3.48Q65.68-4.56 66.36-6.28L66.36-6.28L69.60-6.28Q68.68-3.32 66.24-1.52L66.24-1.52Q63.68 0.32 60.16 0.32L60.16 0.32Q55.76 0.32 53-2.68L53-2.68Q50.32-5.60 50.32-10L50.32-10Q50.32-14.40 53-17.32L53-17.32Q55.76-20.32 60.16-20.32L60.16-20.32Q63.68-20.32 66.24-18.48L66.24-18.48Q68.68-16.68 69.60-13.72L69.60-13.72L66.36-13.72Q65.68-15.44 64.20-16.52Q62.72-17.60 60.80-17.60Q58.88-17.60 57.54-17Q56.20-16.40 55.28-15.36L55.28-15.36Q53.32-13.20 53.32-10L53.32-10Q53.32-6.80 55.28-4.64L55.28-4.64Q57.28-2.40 60.80-2.40Z M77.32-28L80.32-28L80.32-16.88Q81.40-18.32 82.96-19.32Q84.52-20.32 86.52-20.32Q88.52-20.32 89.96-19.76Q91.40-19.20 92.48-18.08L92.48-18.08Q94.96-15.64 94.96-11.64L94.96-11.64L94.96 0L91.96 0L91.96-11.56Q91.96-14.32 90.40-15.96Q88.84-17.60 86.36-17.60L86.36-17.60Q83.84-17.60 82.08-15.92L82.08-15.92Q80.32-14.20 80.32-11.52L80.32-11.52L80.32 0L77.32 0L77.32-28Z M120.12-10.16L120.12 0L117.12 0L117.12-26.48L129.80-26.48Q133.84-26.48 136.28-24.24L136.28-24.24Q138.72-22.04 138.72-18.20L138.72-18.20Q138.72-13.24 134.60-11.44L134.60-11.44Q133.44-10.92 132.32-10.68L132.32-10.68L139.28 0L135.72 0L129.32-10.16L120.12-10.16ZM120.12-23.64L120.12-13L129.28-13Q133.52-13 135.12-15.64L135.12-15.64Q135.72-16.64 135.72-18.20L135.72-18.20Q135.72-20.72 134-22.18Q132.28-23.64 129.44-23.64L129.44-23.64L120.12-23.64Z M155.68-2.40L155.68-2.40Q159.72-2.40 161.48-5.76L161.48-5.76L164.76-5.76Q163.72-3.04 161.46-1.36Q159.20 0.32 155.64 0.32L155.64 0.32Q151.12 0.32 148.28-2.68L148.28-2.68Q145.52-5.60 145.52-10L145.52-10Q145.52-14.44 148.16-17.32L148.16-17.32Q150.96-20.32 155.44-20.32L155.44-20.32Q159.92-20.32 162.72-17.32L162.72-17.32Q165.36-14.44 165.36-10L165.36-10L165.36-8.80L148.60-8.80Q148.92-6.04 150.80-4.24L150.80-4.24Q152.72-2.40 155.68-2.40ZM155.44-17.60L155.44-17.60Q152.68-17.60 150.80-15.88L150.80-15.88Q149.04-14.24 148.64-11.60L148.64-11.60L162.24-11.60Q161.84-14.24 160.08-15.88L160.08-15.88Q158.20-17.60 155.44-17.60Z M186.36-20L189.64-20L181.84 0L178.32 0L170.48-20L173.76-20L180.08-3.20L186.36-20Z M196.44 0L196.44-20L199.44-20L199.44 0L196.44 0ZM196.32-27.28L199.56-27.28L199.56-23.36L196.32-23.36L196.32-27.28Z M217.56-2.40L217.56-2.40Q221.60-2.40 223.36-5.76L223.36-5.76L226.64-5.76Q225.60-3.04 223.34-1.36Q221.08 0.32 217.52 0.32L217.52 0.32Q213 0.32 210.16-2.68L210.16-2.68Q207.40-5.60 207.40-10L207.40-10Q207.40-14.44 210.04-17.32L210.04-17.32Q212.84-20.32 217.32-20.32L217.32-20.32Q221.80-20.32 224.60-17.32L224.60-17.32Q227.24-14.44 227.24-10L227.24-10L227.24-8.80L210.48-8.80Q210.80-6.04 212.68-4.24L212.68-4.24Q214.60-2.40 217.56-2.40ZM217.32-17.60L217.32-17.60Q214.56-17.60 212.68-15.88L212.68-15.88Q210.92-14.24 210.52-11.60L210.52-11.60L224.12-11.60Q223.72-14.24 221.96-15.88L221.96-15.88Q220.08-17.60 217.32-17.60Z M252.40 0L247.40-15.96L242.40 0L238.96 0L232.68-20L235.88-20L240.68-3.72L245.76-20L249.04-20L254.12-3.72L258.92-20L262.12-20L255.84 0L252.40 0Z M283.88-14.64L280.84-14.64Q280.44-17.76 275.82-17.76Q271.20-17.76 271.20-14.88L271.20-14.88Q271.20-13.68 272.18-13.06Q273.16-12.44 274.64-12.04Q276.12-11.64 277.86-11.30Q279.60-10.96 281.08-10.34Q282.56-9.72 283.54-8.64Q284.52-7.56 284.52-5.68L284.52-5.68Q284.52-2.76 282.32-1.22Q280.12 0.32 276.36 0.32L276.36 0.32Q272.36 0.32 270-1.68L270-1.68Q267.84-3.44 267.68-6.28L267.68-6.28L270.80-6.28Q271.08-3.52 273.92-2.56L273.92-2.56Q274.96-2.24 275.98-2.24Q277-2.24 277.88-2.36Q278.76-2.48 279.60-2.80L279.60-2.80Q281.52-3.56 281.52-5.40L281.52-5.40Q281.52-6.64 280.54-7.30Q279.56-7.96 278.08-8.38Q276.60-8.80 274.86-9.14Q273.12-9.48 271.64-10.08Q270.16-10.68 269.18-11.72Q268.20-12.76 268.20-14.60L268.20-14.60Q268.20-17.32 270.18-18.82Q272.16-20.32 276.04-20.32L276.04-20.32Q279.72-20.32 281.84-18.56L281.84-18.56Q283.60-17.08 283.88-14.64L283.88-14.64Z"></path>
            </g>
          </svg>